<svg width="266" height="390" viewBox="0 0 266 390" fill="none" xmlns="http://www.w3.org/2000/svg">
<path d="M18.506 175.109L110.506 227.109C123.506 235.109 127.506 234.109 127.506 272.109V378.109C128.006 385.109 123.106 395.709 99.506 382.109L3.00596 325.609L1.00596 182.609C0.839296 176.718 4.10597 166.97 18.506 175.109Z" fill="#E6A744"/>
<path d="M127.506 272.109C127.506 234.109 123.506 235.109 110.506 227.109L18.506 175.109C4.10597 166.97 0.839296 176.718 1.00596 182.609L3.00596 325.609L99.506 382.109C123.106 395.709 128.006 385.109 127.506 378.109M127.506 272.109C127.506 310.109 127.506 358.609 127.506 378.109M127.506 272.109V378.109" stroke="#E6A744"/>
<path d="M115 148.5C119.833 150 129.2 157.7 128 176.5C126.8 195.3 127.5 275.333 128 313L252.5 238.5C257 236.5 265.7 226.9 264.5 204.5V86C264.5 81 261.3 70.2 248.5 67C226.9 79.8 150.5 126.667 115 148.5Z" fill="#CF3955"/>
<path d="M264.5 204.5C265.7 226.9 257 236.5 252.5 238.5L128 313C127.5 275.333 126.8 195.3 128 176.5C129.2 157.7 119.833 150 115 148.5C150.5 126.667 226.9 79.8 248.5 67C261.3 70.2 264.5 81 264.5 86M264.5 204.5C264.5 180.1 264.5 115.333 264.5 86M264.5 204.5V86" stroke="#CF3955"/>
<path d="M11.2289 87.0338L116.229 149.034L253.729 67.5338L144.729 4.53377C140.396 1.8671 128.629 -1.86623 116.229 4.53377C103.829 10.9338 41.0622 49.2004 11.2289 67.5338C5.01917 70.3671 -3.67441 78.2337 11.2289 87.0338Z" fill="#67B2C1" stroke="#67B2C1"/>
</svg>
