<svg width="22" height="31" viewBox="0 0 22 31" fill="none" xmlns="http://www.w3.org/2000/svg">
<path d="M2.32816 14.2095L9.3081 18.1547C10.2944 18.7617 10.5979 18.6858 10.5979 21.5688V29.6109C10.6358 30.142 10.2641 30.9462 8.47354 29.9144L1.15219 25.6278L1.00045 14.7785C0.987808 14.3316 1.23565 13.592 2.32816 14.2095Z" fill="#E6A744"/>
<path d="M10.5979 21.5688C10.5979 18.6858 10.2944 18.7617 9.3081 18.1547L2.32816 14.2095C1.23565 13.592 0.987808 14.3316 1.00045 14.7785L1.15219 25.6278L8.47354 29.9144C10.2641 30.9462 10.6358 30.142 10.5979 29.6109M10.5979 21.5688C10.5979 24.4518 10.5979 28.1315 10.5979 29.6109M10.5979 21.5688V29.6109" stroke="#E6A744"/>
<path d="M9.64917 12.1906C10.0159 12.3044 10.7265 12.8886 10.6355 14.315C10.5444 15.7413 10.5975 21.8134 10.6355 24.6711L20.0812 19.0188C20.4226 18.8671 21.0826 18.1388 20.9916 16.4393V7.44883C20.9916 7.06949 20.7488 6.2501 19.7777 6.00732C18.1389 6.97845 12.3425 10.5342 9.64917 12.1906Z" fill="#CF3955"/>
<path d="M20.9916 16.4393C21.0826 18.1388 20.4226 18.8671 20.0812 19.0188L10.6355 24.6711C10.5975 21.8134 10.5444 15.7413 10.6355 14.315C10.7265 12.8886 10.0159 12.3044 9.64917 12.1906C12.3425 10.5342 18.1389 6.97845 19.7777 6.00732C20.7488 6.2501 20.9916 7.06949 20.9916 7.44883M20.9916 16.4393C20.9916 14.5881 20.9916 9.67432 20.9916 7.44883M20.9916 16.4393V7.44883" stroke="#CF3955"/>
<path d="M1.77617 7.52729L9.74241 12.2312L20.1744 6.04785L11.9047 1.2681C11.5759 1.06579 10.6832 0.782542 9.74241 1.2681C8.80164 1.75366 4.0396 4.65692 1.77617 6.04785C1.30505 6.26281 0.645475 6.85964 1.77617 7.52729Z" fill="#67B2C1" stroke="#67B2C1"/>
</svg>
